<mxfile host="app.diagrams.net" modified="2020-12-30T14:18:09.200Z" agent="5.0 (Windows)" etag="-YeKtEwKBhV_N38OO1kb" version="14.1.3" type="github">
  <diagram name="Page-1" id="58cdce13-f638-feb5-8d6f-7d28b1aa9fa0">
    <mxGraphModel dx="1117" dy="610" grid="1" gridSize="10" guides="1" tooltips="1" connect="1" arrows="1" fold="1" page="1" pageScale="1" pageWidth="1100" pageHeight="850" background="#ffffff" math="0" shadow="0">
      <root>
        <mxCell id="0" />
        <mxCell id="1" parent="0" />
        <mxCell id="qLAmZXMIbUz67TFTp53_-2" value="وارد به برنامه" style="html=1;align=center;verticalAlign=top;rounded=1;absoluteArcSize=1;arcSize=10;dashed=0;fontSize=15;fontStyle=1" parent="1" vertex="1">
          <mxGeometry x="500" y="295" width="150" height="40" as="geometry" />
        </mxCell>
        <mxCell id="qLAmZXMIbUz67TFTp53_-3" value="" style="ellipse;fillColor=#000000;strokeColor=none;" parent="1" vertex="1">
          <mxGeometry x="260" y="290" width="50" height="50" as="geometry" />
        </mxCell>
        <mxCell id="qLAmZXMIbUz67TFTp53_-4" value="" style="ellipse;html=1;shape=endState;fillColor=#000000;strokeColor=#000000;" parent="1" vertex="1">
          <mxGeometry x="520" y="477.5" width="50" height="50" as="geometry" />
        </mxCell>
        <mxCell id="qLAmZXMIbUz67TFTp53_-5" value="&lt;b&gt;&lt;font style=&quot;font-size: 21px&quot;&gt;فروشنده&lt;/font&gt;&lt;/b&gt;" style="shape=note2;boundedLbl=1;whiteSpace=wrap;html=1;size=25;verticalAlign=top;align=left;" parent="1" vertex="1">
          <mxGeometry width="120" height="60" as="geometry" />
        </mxCell>
        <mxCell id="qLAmZXMIbUz67TFTp53_-6" value="&lt;font style=&quot;font-size: 22px&quot;&gt;ورود به برنامه &lt;/font&gt;" style="edgeStyle=none;html=1;endArrow=open;endSize=12;strokeWidth=3;verticalAlign=bottom;exitX=1;exitY=0.5;exitDx=0;exitDy=0;entryX=0;entryY=0.5;entryDx=0;entryDy=0;" parent="1" source="qLAmZXMIbUz67TFTp53_-3" target="qLAmZXMIbUz67TFTp53_-2" edge="1">
          <mxGeometry width="160" relative="1" as="geometry">
            <mxPoint x="320" y="319.17" as="sourcePoint" />
            <mxPoint x="480" y="319.17" as="targetPoint" />
          </mxGeometry>
        </mxCell>
        <mxCell id="FcyZnMZGrbSRMLAjMmXu-1" value="&lt;b&gt;&lt;font style=&quot;font-size: 22px&quot;&gt;انتظار تایید هویت&lt;br&gt;&lt;/font&gt;&lt;/b&gt;" style="html=1;align=center;verticalAlign=top;rounded=1;absoluteArcSize=1;arcSize=10;dashed=0;" vertex="1" parent="1">
          <mxGeometry x="570" y="120" width="150" height="40" as="geometry" />
        </mxCell>
        <mxCell id="FcyZnMZGrbSRMLAjMmXu-2" value="&lt;font style=&quot;font-size: 22px&quot;&gt;اقدام ثبت نام &lt;br&gt;&lt;/font&gt;" style="edgeStyle=none;html=1;endArrow=open;endSize=12;strokeWidth=3;verticalAlign=bottom;exitX=0.75;exitY=0;exitDx=0;exitDy=0;entryX=0.43;entryY=1.036;entryDx=0;entryDy=0;entryPerimeter=0;" edge="1" parent="1" source="qLAmZXMIbUz67TFTp53_-2" target="FcyZnMZGrbSRMLAjMmXu-1">
          <mxGeometry width="160" relative="1" as="geometry">
            <mxPoint x="560" y="240" as="sourcePoint" />
            <mxPoint x="750" y="240" as="targetPoint" />
            <Array as="points">
              <mxPoint x="690" y="240" />
            </Array>
          </mxGeometry>
        </mxCell>
        <mxCell id="FcyZnMZGrbSRMLAjMmXu-3" value="&lt;font style=&quot;font-size: 22px&quot;&gt;[پیام=تایید]&lt;/font&gt;" style="edgeStyle=none;html=1;endArrow=open;endSize=12;strokeWidth=3;verticalAlign=bottom;exitX=1;exitY=0.5;exitDx=0;exitDy=0;entryX=0.5;entryY=0;entryDx=0;entryDy=0;" edge="1" parent="1" source="FcyZnMZGrbSRMLAjMmXu-1" target="FcyZnMZGrbSRMLAjMmXu-5">
          <mxGeometry width="160" relative="1" as="geometry">
            <mxPoint x="820" y="170" as="sourcePoint" />
            <mxPoint x="890" y="220" as="targetPoint" />
            <Array as="points">
              <mxPoint x="1080" y="140" />
            </Array>
          </mxGeometry>
        </mxCell>
        <mxCell id="FcyZnMZGrbSRMLAjMmXu-4" value="&lt;font style=&quot;font-size: 22px&quot;&gt;[پیام=خطا]&lt;/font&gt;" style="edgeStyle=none;html=1;endArrow=open;endSize=12;strokeWidth=3;verticalAlign=bottom;exitX=0;exitY=0.5;exitDx=0;exitDy=0;entryX=0.25;entryY=0;entryDx=0;entryDy=0;" edge="1" parent="1" source="FcyZnMZGrbSRMLAjMmXu-1" target="qLAmZXMIbUz67TFTp53_-2">
          <mxGeometry x="-0.4261" y="-32" width="160" relative="1" as="geometry">
            <mxPoint x="480" y="160" as="sourcePoint" />
            <mxPoint x="539.5" y="26.439999999999827" as="targetPoint" />
            <Array as="points">
              <mxPoint x="500" y="220" />
            </Array>
            <mxPoint as="offset" />
          </mxGeometry>
        </mxCell>
        <mxCell id="FcyZnMZGrbSRMLAjMmXu-5" value="&lt;b&gt;&lt;font style=&quot;font-size: 22px&quot;&gt;logged in &lt;br&gt;&lt;/font&gt;&lt;/b&gt;" style="html=1;align=center;verticalAlign=top;rounded=1;absoluteArcSize=1;arcSize=10;dashed=0;" vertex="1" parent="1">
          <mxGeometry x="1000" y="180" width="150" height="40" as="geometry" />
        </mxCell>
        <mxCell id="FcyZnMZGrbSRMLAjMmXu-6" value="&lt;font style=&quot;font-size: 22px&quot;&gt;اقدام ثبت رستوران &lt;br&gt;&lt;/font&gt;" style="edgeStyle=none;html=1;endArrow=open;endSize=12;strokeWidth=3;verticalAlign=bottom;exitX=0.5;exitY=1;exitDx=0;exitDy=0;entryX=0.5;entryY=0;entryDx=0;entryDy=0;" edge="1" parent="1" source="FcyZnMZGrbSRMLAjMmXu-5" target="FcyZnMZGrbSRMLAjMmXu-7">
          <mxGeometry x="0.1111" y="-15" width="160" relative="1" as="geometry">
            <mxPoint x="850" y="360" as="sourcePoint" />
            <mxPoint x="1040" y="400" as="targetPoint" />
            <Array as="points" />
            <mxPoint as="offset" />
          </mxGeometry>
        </mxCell>
        <mxCell id="FcyZnMZGrbSRMLAjMmXu-7" value="&lt;b&gt;&lt;font style=&quot;font-size: 22px&quot;&gt;انتظار تایید اطلاعات رستوران&lt;br&gt;&lt;/font&gt;&lt;/b&gt;" style="html=1;align=center;verticalAlign=top;rounded=1;absoluteArcSize=1;arcSize=10;dashed=0;" vertex="1" parent="1">
          <mxGeometry x="960" y="310" width="230" height="55" as="geometry" />
        </mxCell>
        <mxCell id="FcyZnMZGrbSRMLAjMmXu-8" value="&lt;font style=&quot;font-size: 22px&quot;&gt;[پیام=تایید]&lt;/font&gt;" style="edgeStyle=none;html=1;endArrow=open;endSize=12;strokeWidth=3;verticalAlign=bottom;exitX=0.5;exitY=1;exitDx=0;exitDy=0;" edge="1" parent="1" source="FcyZnMZGrbSRMLAjMmXu-7">
          <mxGeometry width="160" relative="1" as="geometry">
            <mxPoint x="790" y="505" as="sourcePoint" />
            <mxPoint x="910" y="500" as="targetPoint" />
            <Array as="points">
              <mxPoint x="1075" y="505" />
            </Array>
          </mxGeometry>
        </mxCell>
        <mxCell id="FcyZnMZGrbSRMLAjMmXu-9" value="&lt;font style=&quot;font-size: 22px&quot;&gt;[پیام=خطا]&lt;/font&gt;" style="edgeStyle=none;html=1;endArrow=open;endSize=12;strokeWidth=3;verticalAlign=bottom;exitX=0;exitY=0.5;exitDx=0;exitDy=0;entryX=0;entryY=0.25;entryDx=0;entryDy=0;" edge="1" parent="1" source="FcyZnMZGrbSRMLAjMmXu-7" target="FcyZnMZGrbSRMLAjMmXu-5">
          <mxGeometry x="-0.4261" y="-32" width="160" relative="1" as="geometry">
            <mxPoint x="780" y="340" as="sourcePoint" />
            <mxPoint x="747.5" y="495.0000000000001" as="targetPoint" />
            <Array as="points">
              <mxPoint x="890" y="338" />
              <mxPoint x="890" y="190" />
            </Array>
            <mxPoint as="offset" />
          </mxGeometry>
        </mxCell>
        <mxCell id="FcyZnMZGrbSRMLAjMmXu-10" value="&lt;font style=&quot;font-size: 22px&quot;&gt;&lt;b&gt;&lt;font style=&quot;font-size: 22px&quot;&gt;رستوران دار&lt;/font&gt;&lt;font style=&quot;font-size: 31px&quot;&gt;&lt;br&gt;&lt;/font&gt;&lt;/b&gt;&lt;/font&gt;" style="html=1;align=center;verticalAlign=middle;rounded=1;absoluteArcSize=1;arcSize=10;dashed=0;" vertex="1" parent="1">
          <mxGeometry x="710" y="480" width="200" height="45" as="geometry" />
        </mxCell>
      </root>
    </mxGraphModel>
  </diagram>
</mxfile>
